<svg width="25" height="25" viewBox="0 0 25 25" fill="none" xmlns="http://www.w3.org/2000/svg">
<path fill-rule="evenodd" clip-rule="evenodd" d="M14.9845 16.0896C13.5805 17.2113 11.8002 17.753 10.0094 17.6032C8.2185 17.4534 6.55297 16.6235 5.35484 15.2841C4.15672 13.9446 3.51695 12.1972 3.56693 10.4008C3.61692 8.60439 4.35286 6.89529 5.62362 5.62453C6.89437 4.35378 8.60347 3.61783 10.3999 3.56785C12.1963 3.51786 13.9437 4.15763 15.2831 5.35576C16.6226 6.55388 17.4524 8.21941 17.6022 10.0103C17.752 11.8011 17.2104 13.5814 16.0886 14.9854L21.4595 20.3552C21.5362 20.4267 21.5978 20.513 21.6405 20.6088C21.6832 20.7046 21.7062 20.8081 21.708 20.913C21.7099 21.0179 21.6906 21.1221 21.6513 21.2193C21.612 21.3166 21.5535 21.405 21.4793 21.4792C21.4051 21.5534 21.3168 21.6119 21.2195 21.6511C21.1222 21.6904 21.018 21.7097 20.9131 21.7079C20.8082 21.706 20.7048 21.6831 20.6089 21.6404C20.5131 21.5977 20.4268 21.5361 20.3553 21.4594L14.9845 16.0896ZM6.72823 14.4625C5.96369 13.6979 5.44297 12.7238 5.23189 11.6633C5.0208 10.6028 5.12882 9.50355 5.5423 8.50445C5.95578 7.50535 6.65615 6.65125 7.55491 6.05008C8.45366 5.44891 9.51046 5.12766 10.5917 5.12694C11.673 5.12621 12.7302 5.44603 13.6298 6.04599C14.5294 6.64595 15.2309 7.49911 15.6457 8.49765C16.0605 9.4962 16.17 10.5953 15.9604 11.6561C15.7507 12.7168 15.2313 13.6916 14.4678 14.4573L14.4626 14.4625L14.4574 14.4666C13.4314 15.4902 12.0412 16.0647 10.5919 16.0639C9.14272 16.0631 7.75307 15.4871 6.72823 14.4625Z" fill="white"/>
</svg>
